<svg id="Layer_1" data-name="Layer 1" xmlns="http://www.w3.org/2000/svg" viewBox="0 0 150 150"><defs><style>.cls-1{fill:#465e7a;fill-rule:evenodd;}.cls-2{fill:#3fb55d;}.cls-3{fill:#fff;}.cls-4{fill:#4f6a83;}</style></defs><path id="Rectangle-7-Copy" class="cls-1" d="M28.82,57.53l18,0a1.7,1.7,0,0,1,1.7,1.7h0a1.7,1.7,0,0,1-1.7,1.7l-18,0a1.7,1.7,0,0,1-1.7-1.7h0A1.7,1.7,0,0,1,28.82,57.53Z"/><path id="Rectangle-7-Copy-2" data-name="Rectangle-7-Copy" class="cls-1" d="M12.82,71.53l18,0a1.7,1.7,0,0,1,1.7,1.7h0a1.7,1.7,0,0,1-1.7,1.7l-18,0a1.7,1.7,0,0,1-1.7-1.7h0A1.7,1.7,0,0,1,12.82,71.53Z"/><path id="Rectangle-7-Copy-2-2" data-name="Rectangle-7-Copy-2" class="cls-1" d="M25.72,64.85h9a1.7,1.7,0,0,1,1.7,1.7h0a1.7,1.7,0,0,1-1.7,1.7l-9,0A1.68,1.68,0,0,1,24,66.54h0A1.69,1.69,0,0,1,25.72,64.85Z"/><path class="cls-2" d="M45.51,77a8.31,8.31,0,0,0-2,1.47l-12.45,0a.36.36,0,0,0-.36.35l0,1.33a.36.36,0,0,0,.29.35c.66.14,2.5.66,3,1.46a.34.34,0,0,0,.29.16h6.45l.55.34a8.67,8.67,0,0,0-.24,2c0,.91,0,1.47,0,1.48a.8.8,0,0,0,.77.85h0a.81.81,0,0,0,.82-.77s0-.6,0-1.56a7.61,7.61,0,0,1,.09-1.08h0a7.18,7.18,0,0,1,.28-1.13c0-.13.09-.26.14-.39l.09-.21.21-.43,0-.06a6.16,6.16,0,0,1,.33-.55h0A6.9,6.9,0,0,1,53,78.49h0a6.86,6.86,0,0,1,3.53,6c0,.08,0,.16,0,.24h.07a.81.81,0,0,0,1.53.13c0,.71,0,1.13,0,1.14a.82.82,0,0,0,.78.85h0a.82.82,0,0,0,.82-.77s0-.52,0-1.35h0c0-.08,0-.16,0-.24s0-.18,0-.27,0-.18,0-.27a2.46,2.46,0,0,1,0-.28c0-.15,0-.29.07-.43s0-.09,0-.14.1-.4.16-.6c0,0,0,0,0-.07a6.9,6.9,0,0,1,9.86-4h0l.16.1a2.61,2.61,0,0,1,.28.17l.28.19.13.09a6.89,6.89,0,0,1,2.74,5.49,1.94,1.94,0,0,1,0,.24h.08a.81.81,0,0,0,1.57,0H114v.58a1.18,1.18,0,0,0,.84,1.27h.72a6.89,6.89,0,1,1,13.09,0h6.94a2.09,2.09,0,0,0,2-.8c.57-.73.73-.73,1-1.29a5,5,0,0,0,.34-1.4V82.3l-1.63-.45a.41.41,0,0,1-.29-.39v-3a.4.4,0,0,1,.39-.4h1.53V71.79c0-.29,0-.59,0-.9a.25.25,0,0,1-.12,0l-2.67-1a.46.46,0,0,1-.29-.37,67.37,67.37,0,0,0-1.13-8.81.47.47,0,0,1,.11-.34.46.46,0,0,1,.33-.16l2.55-.05c0-.34-.1-.64-.15-.87a1.22,1.22,0,0,0-1.23-1.14c-.63-.07-2.84-.25-6-.35-1.17-7.38-10.86-8.9-14.66-8.91a1.63,1.63,0,0,0-1.55,1.8s0,4.74,0,8.71V78.34l-41.4.1a8.74,8.74,0,0,0-1.87-1.39m54.11-16.39a.44.44,0,0,1,.44-.47h7.23a.46.46,0,0,1,.44.36,37.17,37.17,0,0,1,.85,8.36.44.44,0,0,1-.17.32.42.42,0,0,1-.28.1h-.06c-2.5-.54-7.73-1.12-7.79-1.13a.45.45,0,0,1-.38-.43ZM53.72,77h8.77a8.61,8.61,0,0,0-1.9,1.43h-5A8.77,8.77,0,0,0,53.72,77Zm-9.51,7.45a5.39,5.39,0,1,0,5.39-5.38A5.39,5.39,0,0,0,44.21,84.49Zm2.13,0a3.26,3.26,0,1,1,3.26,3.26A3.26,3.26,0,0,1,46.34,84.49Zm14.87,0a5.39,5.39,0,1,0,5.38-5.38A5.38,5.38,0,0,0,61.21,84.49Zm2.13,0a3.26,3.26,0,1,1,3.25,3.26A3.25,3.25,0,0,1,63.34,84.49Zm53.39,0a5.39,5.39,0,1,0,5.39-5.38A5.39,5.39,0,0,0,116.73,84.49Zm2.13,0a3.26,3.26,0,1,1,3.26,3.26A3.26,3.26,0,0,1,118.86,84.49Z"/><circle class="cls-3" cx="58.7" cy="74.28" r="3.38"/><path class="cls-4" d="M110.05,70c-.25-.85-1-1.23-3.27-2.33l-1.38-.68a29.31,29.31,0,0,0-17.11-2.58A3.91,3.91,0,0,1,86.87,64l0,0c-1.32-.53-3.06-1.43-4.75-2.31C79,60,77.24,59.13,76.25,59.13h-.2a87.27,87.27,0,0,0-10.13.45h-.1l-.16,0h0a11.73,11.73,0,0,0-3,.71c-2.53,1.11-13.3,3.84-16.19,4.34a2.11,2.11,0,0,0-1.72,1.43c-.83,2.51,2.55,7.23,3.54,8.27,1.71,1.82,5,1.95,5.45,2h0a5.28,5.28,0,0,0,1,1.55h0a5.13,5.13,0,0,0,7.53-.15,4.87,4.87,0,0,0,.88-1.4H92.48a5.24,5.24,0,0,0,1,1.55h0a5.13,5.13,0,0,0,7.53-.15,5.24,5.24,0,0,0,.88-1.4h.63c.2,0,4.92-1,6.78-4.09l.17-.28A2.48,2.48,0,0,0,110.05,70Zm-34-8.89h.15a28.18,28.18,0,0,1,5,2.27l1.66.86c-10.7.91-12.86.49-13.28.24a8,8,0,0,1-2.33-3.06C70.54,61.05,74.63,61.05,76.09,61.06ZM60.88,76.45a3.21,3.21,0,0,1-4.7.09,3.25,3.25,0,0,1-.89-2.06v-.16a3.21,3.21,0,1,1,6.42,0A3.17,3.17,0,0,1,60.88,76.45Zm38.71,0a3.2,3.2,0,0,1-5.59-2v-.16a3.21,3.21,0,1,1,6.42,0A3.27,3.27,0,0,1,99.59,76.45Z"/></svg>