<svg id="Layer_1" data-name="Layer 1" xmlns="http://www.w3.org/2000/svg" viewBox="0 0 150 150"><defs><style>.cls-1{fill:#dfe7ed;}.cls-2{fill:#3fb55d;}.cls-3,.cls-5{fill:none;stroke:#3fb55d;}.cls-3{stroke-miterlimit:10;stroke-width:3.71px;}.cls-4{fill:#4f6a83;}.cls-5{stroke-linecap:square;stroke-width:3px;stroke-dasharray:2 6;}</style></defs><path class="cls-1" d="M103.5,92.71a11.1,11.1,0,0,0-8-1.18L80,94.83a28.13,28.13,0,0,1-3.37.51L66,96.06a3.39,3.39,0,0,0-2.36,1,4.93,4.93,0,0,0,0,1l.14,3.54A2.4,2.4,0,0,0,66.23,104l13.68.61c1,.06,6.88-.56,10.29-.95a1.5,1.5,0,1,1,.34,3c-.89.1-8.55,1-10.57,1h-.19L66.05,107a5.44,5.44,0,0,1-5.35-5.42l-.14-3.41a7.55,7.55,0,0,1,0-1.25l-10.9-6.57a2.91,2.91,0,0,0-2.28-.53,3,3,0,0,0-2,1.31L43.56,93.9a3.19,3.19,0,0,0,.71,4.3L72.08,121a5.67,5.67,0,0,0,5.24,1l16.93-4.34c2.71-.54,3.28-.48,5.13.51l5.06,3a61.17,61.17,0,0,0,19.17-16.59c-3.34-2-7.66-4.55-7.91-4.7Z"/><path class="cls-2" d="M81.26,49.86a9.26,9.26,0,0,0-11,14.38l-8.38,17.4,3.34,1.61,4.95-1.73L76.9,67.46a9.26,9.26,0,0,0,4.36-17.6Z"/><path class="cls-3" d="M70.13,47.36A9.25,9.25,0,0,0,56.88,55L38.65,61.39l1.22,3.5L44.22,67l14.84-5.19a10.11,10.11,0,0,0,6.72,3.13"/><line class="cls-3" x1="78.05" y1="56.54" x2="84.48" y2="43.18"/><path class="cls-4" d="M53.26,10.74l-.43.9c2.6,1.4,5.82,3.51,5.82,3.51-.13,3.6,3.15,8.52,3.76,9.87,1.65,3.6,7,6.69,8.43,9.37,2,3.84,3.19,7.83,7.15,9.8,4.65,2.3,6.58-.65,6.91-2.61.3-1.81.7-3.78-1.9-7.18-1.76-2.29-4-4.55-4-7.88a8.8,8.8,0,0,1,1.16-4.93c1.51-2,3.94-1.25,5.08-.48,1.81,1.21,4.53,9.19,5.27,11-.9,1-3,2.81-4,4.84-2.85,5.54-2,10.67-.13,11.56,3.36,1.62,5-2.61,7.21-5.4,1.63-2,8.22-9.68,8-11.46S97.88,16,95.94,14.23c-.79-.73-3.18-3-6.07-5.66a61,61,0,0,0-36.61,2.17Z"/><circle class="cls-5" cx="75" cy="67.73" r="61"/></svg>