<svg id="Layer_1" data-name="Layer 1" xmlns="http://www.w3.org/2000/svg" viewBox="0 0 150 150"><defs><style>.cls-1{fill:none;}.cls-2{fill:#dfe7ed;}.cls-2,.cls-3,.cls-5{fill-rule:evenodd;}.cls-3{fill:#4f6a83;}.cls-4{fill:#3fb55d;}.cls-5{fill:#fff;}</style></defs><g id="Page-1"><g id="escrow-step1"><path id="Clip-4" class="cls-1" d="M79.52,45.51h51V91.63h-51Z"/><path id="Fill-3" class="cls-2" d="M81.43,86.53a10.5,10.5,0,0,1-1.81,5.1c.07,0,.14,0,.21,0a35.29,35.29,0,0,0,20.7-8.88l.75,8.71h29.2l-2.72-32.26A14.74,14.74,0,0,0,112,45.56c-6.44.9-11.92,4.62-13.31,14.75-1.54,11.26-9.17,18-19.16,19.18a10.58,10.58,0,0,1,1.91,7"/><path id="Fill-6" class="cls-2" d="M107,42.67a13.52,13.52,0,0,0,12.08-14.74A13.3,13.3,0,1,0,92.58,30.3,13.39,13.39,0,0,0,107,42.67"/><path id="Fill-8" class="cls-3" d="M49.25,88.05A33.84,33.84,0,0,1,37.77,72.84l4-1.53c4.62,11.54,15.57,19.17,28.73,20.35a6,6,0,0,0,6.42-5.5A6,6,0,0,0,71.5,79.6C61.09,78.67,53,71.77,51.57,60.06c-.91-7.44-5.8-13.82-13.27-14.49A14.54,14.54,0,0,0,22.55,59l-3,32.47H49Z"/><path id="Fill-10" class="cls-3" d="M45,42.67A13.61,13.61,0,1,0,30.57,30.3,13.39,13.39,0,0,0,45,42.67"/><g id="Group-17"><circle id="Oval-4" class="cls-4" cx="75.52" cy="52.51" r="18"/><path id="_" data-name="$" class="cls-5" d="M77.85,56a1.89,1.89,0,0,0-.53-1.37,4.63,4.63,0,0,0-1.76-1,13.79,13.79,0,0,1-1.91-.8,3.89,3.89,0,0,1-2.28-3.61,3.74,3.74,0,0,1,1-2.67A4.19,4.19,0,0,1,75,45.35V43.22H76.6v2.15a3.86,3.86,0,0,1,2.63,1.44,5,5,0,0,1,.92,3.11H77.79A3.07,3.07,0,0,0,77.24,48a1.81,1.81,0,0,0-1.5-.71,2,2,0,0,0-1.47.51,1.93,1.93,0,0,0-.52,1.46,1.82,1.82,0,0,0,.52,1.36,5.21,5.21,0,0,0,1.77,1,14.79,14.79,0,0,1,2,.85,5.2,5.2,0,0,1,1.21.89A3.73,3.73,0,0,1,80,54.47,4.23,4.23,0,0,1,80.22,56a3.67,3.67,0,0,1-1,2.68,4.43,4.43,0,0,1-2.82,1.21V61.8H74.84V59.9a4.39,4.39,0,0,1-3-1.39,4.46,4.46,0,0,1-1-3.1H73.2a2.72,2.72,0,0,0,.62,1.9,2.26,2.26,0,0,0,1.75.68,2.41,2.41,0,0,0,1.7-.54A1.84,1.84,0,0,0,77.85,56Z"/></g></g></g></svg>