<svg id="Layer_1" data-name="Layer 1" xmlns="http://www.w3.org/2000/svg" viewBox="0 0 150 150"><defs><style>.cls-1{fill:#4f6a83;}.cls-2{fill:#dfe7ed;}.cls-3{fill:#3fb55d;}</style></defs><path class="cls-1" d="M104.61,55a21.81,21.81,0,0,0-4.85-1.84c2.38-.56,5.3-2,4.7-4.29-.74-2.87-6.19-2.1-7.52-1.42-.89.46-1.67,2-2.12,3.17-2.55-2.5-7.89-7.08-13.4-7.52a100.3,100.3,0,0,0-10.63-.36,100.13,100.13,0,0,0-10.62.36c-5.52.44-10.86,5-13.4,7.52-.45-1.12-1.23-2.71-2.13-3.17-1.32-.68-6.77-1.45-7.51,1.42-.61,2.33,2.31,3.73,4.69,4.29A21.51,21.51,0,0,0,37,55c-1.83,1.22-2.44,4.27-2.13,9.45s1.52,16.13,2.74,17.35S51,83.6,53.15,83L58,79.24H83.55L88.44,83c2.13.61,14.33,0,15.56-1.18s2.44-12.16,2.74-17.35S106.44,56.23,104.61,55ZM42.81,79.57a2.32,2.32,0,1,1,2.32-2.31A2.31,2.31,0,0,1,42.81,79.57ZM52,66.35c-1.64.24-9.57-1.4-11-3.26a2.68,2.68,0,0,1,.23-3.5c.7.23,9.8,5.13,12.6,5.6C53.89,65.19,53.66,66.12,52,66.35ZM80.6,74.1H61a2.93,2.93,0,0,1,0-5.85H80.6a2.93,2.93,0,0,1,0,5.85ZM71.22,53.94h-.65c-3.33,0-18.68-.17-20.82-1.18,0,0,7-5.56,10.92-6.38a52.54,52.54,0,0,1,10.22-.5,52.61,52.61,0,0,1,10.23.5C85,47.2,92,52.76,92,52.76,89.9,53.77,74.55,53.92,71.22,53.94ZM89.56,66.35c-1.63-.23-1.87-1.16-1.87-1.16,2.8-.47,11.9-5.37,12.6-5.6a2.68,2.68,0,0,1,.24,3.5C99.13,65,91.19,66.59,89.56,66.35Zm9.22,13.22a2.32,2.32,0,1,1,2.31-2.31A2.31,2.31,0,0,1,98.78,79.57Z"/><circle class="cls-2" cx="97.36" cy="68.95" r="15.51"/><path class="cls-3" d="M68.41,106,81.85,90a3.66,3.66,0,0,0,.81-2.85L86.15,83a17.8,17.8,0,1,0-3.24-3.54l0,0-3.73,4.45a3.62,3.62,0,0,0-3,1.28l-13.45,16A3.73,3.73,0,0,0,68.41,106ZM97.48,54.56A14.75,14.75,0,1,1,82.74,69.31,14.76,14.76,0,0,1,97.48,54.56Z"/><path class="cls-3" d="M105.1,78.7l0,0a14,14,0,0,0,2.82-3.36,13.57,13.57,0,0,0,1.42-9.45,13.57,13.57,0,0,0-1.69-4,1,1,0,0,0-.14-.27,1,1,0,0,0-1.78,1.1l0,.08c.13.2.25.39.36.6a11.05,11.05,0,0,1,.86,2,11.57,11.57,0,0,1,.47,2.37,10.23,10.23,0,0,1-.08,2.64,10.44,10.44,0,0,1-.69,2.55,12.41,12.41,0,0,1-1.16,2.12,9.6,9.6,0,0,1-1.4,1.67,3.65,3.65,0,0,1-.3.27,1.47,1.47,0,0,0-.52.71.89.89,0,0,0,.13.77l0,.05c.21.28.7.68,1.58.17Zm-1.39-.38Z"/></svg>