<?xml version="1.0" encoding="utf-8"?>
<!-- Generator: Adobe Illustrator 24.1.2, SVG Export Plug-In . SVG Version: 6.00 Build 0)  -->
<svg version="1.0" id="Layer_1" xmlns="http://www.w3.org/2000/svg" xmlns:xlink="http://www.w3.org/1999/xlink" x="0px" y="0px"
	 viewBox="0 0 150 150" enable-background="new 0 0 150 150" xml:space="preserve">
<g>
	<polyline fill="#465E7A" points="46.9,47.7 53.6,20.3 88.5,20.3 94.9,45.9 	"/>
	<polyline fill="#465E7A" points="94.9,81.2 88.5,106.8 53.6,106.8 47.2,81.2 	"/>
	<polyline fill="#465E7A" points="83.7,52.4 71,65.1 63,57.5 	"/>
	<path fill="#465E7A" d="M63.1,42.1c2.5-0.9,5.1-1.4,7.9-1.4c12.6,0,22.9,10.2,22.9,22.9c0,12.6-10.2,22.9-22.9,22.9
		S48.2,76.2,48.2,63.6c0-7.1,3.2-13.5,8.3-17.7"/>
	<path fill="#465E7A" d="M100.7,63.6c0,16.4-13.3,29.7-29.7,29.7c-16.4,0-29.7-13.3-29.7-29.7c0-16.4,13.3-29.7,29.7-29.7
		C87.4,33.9,100.7,47.2,100.7,63.6z"/>
	<polyline fill="#465E7A" points="103.2,57.3 107.8,57.3 107.8,69.8 103.2,69.8 	"/>
</g>
<polyline fill="none" stroke="#FFFFFF" stroke-width="2.5" stroke-miterlimit="10" points="83.4,52.4 70.7,65.1 62.6,57.5 "/>
<g>
	<path fill="#FFFFFF" d="M71,42.2c11.8,0,21.3,9.6,21.3,21.3S82.8,84.9,71,84.9c-11.8,0-21.3-9.6-21.3-21.3S59.3,42.2,71,42.2
		 M71,39.7c-13.2,0-23.8,10.7-23.8,23.8c0,13.2,10.7,23.8,23.8,23.8c13.2,0,23.8-10.7,23.8-23.8C94.9,50.4,84.2,39.7,71,39.7
		L71,39.7z"/>
</g>
<g>
	<path fill="#FFFFFF" d="M71,35.2c15.6,0,28.3,12.7,28.3,28.3S86.7,91.9,71,91.9c-15.6,0-28.4-12.7-28.4-28.3S55.4,35.2,71,35.2
		 M71,32.7c-17,0-30.9,13.8-30.9,30.8c0,17,13.8,30.8,30.9,30.8c17,0,30.8-13.8,30.8-30.8C101.9,46.6,88.1,32.7,71,32.7L71,32.7z"/>
</g>
<g>
	<circle fill="#DFE7ED" cx="97.6" cy="83.9" r="15.5"/>
	<g>
		<path fill="#3FB55D" d="M68.7,120.9l13.4-16c0.7-0.8,0.9-1.9,0.8-2.8l3.5-4.2c3.1,2.6,7,4.1,11.3,4.1c9.8,0,17.7-8,17.7-17.7
			c0-9.8-8-17.7-17.7-17.7c-9.8,0-17.7,8-17.7,17.7c0,3.8,1.2,7.2,3.2,10.1c0,0,0,0,0,0l-3.7,4.4c-1.1-0.1-2.2,0.4-3,1.3l-13.4,16
			c-1.3,1.6-1.1,3.9,0.5,5.2C65,122.7,67.4,122.5,68.7,120.9z M97.7,69.5c8.1,0,14.7,6.6,14.7,14.7c0,8.1-6.6,14.7-14.7,14.7
			C89.6,99,83,92.4,83,84.3C83,76.1,89.6,69.5,97.7,69.5z"/>
		<path fill="#3FB55D" d="M105.4,93.7L105.4,93.7c1.2-1,2.1-2.1,2.8-3.4c0.8-1.3,1.3-2.9,1.6-4.6c0.3-1.7,0.2-3.4-0.1-4.9
			c-0.3-1.4-0.9-2.8-1.7-4c0-0.1-0.1-0.2-0.1-0.3c-0.4-0.5-1-0.6-1.5-0.2c-0.4,0.3-0.5,0.9-0.3,1.3l0,0.1c0.1,0.2,0.2,0.4,0.4,0.6
			c0.3,0.6,0.6,1.3,0.9,2c0.2,0.7,0.4,1.5,0.5,2.4c0.1,0.8,0.1,1.7-0.1,2.6c-0.1,0.9-0.4,1.8-0.7,2.5c-0.3,0.8-0.7,1.5-1.2,2.1
			c-0.4,0.6-0.9,1.2-1.4,1.7c-0.1,0.1-0.2,0.2-0.3,0.3c-0.2,0.1-0.4,0.4-0.5,0.7c-0.1,0.3,0,0.5,0.1,0.8l0,0.1
			C104,93.8,104.4,94.2,105.4,93.7L105.4,93.7z M104,93.3L104,93.3L104,93.3L104,93.3z"/>
	</g>
</g>
</svg>
