<svg id="Layer_1" data-name="Layer 1" xmlns="http://www.w3.org/2000/svg" xmlns:xlink="http://www.w3.org/1999/xlink" viewBox="0 0 150 150"><defs><style>.cls-1{fill:#fff;}.cls-1,.cls-3,.cls-4{fill-rule:evenodd;}.cls-2{mask:url(#mask);}.cls-3{fill:#dfe7ed;}.cls-4{fill:#465e7a;}.cls-5,.cls-7{fill:none;}.cls-5{stroke:#3fb55d;stroke-linecap:square;stroke-width:3px;stroke-dasharray:2 6;}.cls-6{fill:#3fb55d;}.cls-7{stroke:#fff;stroke-linecap:round;stroke-linejoin:round;stroke-width:2px;}</style><mask id="mask" x="15" y="6.19" width="120" height="128.52" maskUnits="userSpaceOnUse"><g id="step-2-mask-2"><path id="step-2-path-1" class="cls-1" d="M75,126.19a60,60,0,1,0-60-60A60,60,0,0,0,75,126.19Z"/></g></mask></defs><g id="Page-1"><g id="escrow-step2"><g class="cls-2"><path id="Fill-1" class="cls-3" d="M102.16,35.26A26,26,0,0,0,99,36.46v11.2l5.08-2.54a5.26,5.26,0,0,0,2.61-6.73c-.85-2.12-3-3.52-4.53-3.13"/><path id="Fill-3" class="cls-3" d="M51.79,96.87a4.24,4.24,0,0,1-.55-4.28,9.07,9.07,0,0,1,4-3.73A8.73,8.73,0,0,1,52,82V33.89c-2.5-4.75-7.22-5.34-9.1-4.2-2.11,1.29,2.56,9.46-2.45,24.62-2.08,6.25-4,12.35-4.39,17.53-1,13.14,6.75,22,15.7,25"/><path id="Fill-5" class="cls-4" d="M83,76.19v5.6a7.8,7.8,0,0,1,2.15-.29A8.46,8.46,0,0,1,88,82a7.43,7.43,0,0,1,.42-5.77Z"/><path id="Fill-7" class="cls-4" d="M76.67,27.34H74a1.28,1.28,0,0,1,0-2.55h2.67a1.27,1.27,0,0,1,1.25,1.28h0a1.26,1.26,0,0,1-1.25,1.27m14.6-6.05c-5.72-.55-10.78-.83-15.85-.83s-10.14.28-15.92.83a5.41,5.41,0,0,0-4.4,5.46V82.89a5.41,5.41,0,0,0,4.45,5.46c2.64.26,5.22.44,7.77.58V75.62H59.08V31H91.63V50l4.09-1.9V26.75a5.42,5.42,0,0,0-4.45-5.46"/><path id="Fill-10" class="cls-3" d="M99,73.19a3.68,3.68,0,0,0-1.47.3l-4.18,1.87a4.19,4.19,0,0,0-2.09,5.38,3.85,3.85,0,0,0,3.62,2.51,3.61,3.61,0,0,0,1.47-.3l4.18-1.87a4.19,4.19,0,0,0,2.09-5.38A3.86,3.86,0,0,0,99,73.19"/><path id="Fill-12" class="cls-3" d="M103.9,64a4.27,4.27,0,0,0-4-2.78,4,4,0,0,0-1.61.33L93.65,63.6a4.64,4.64,0,0,0-2.32,5.95,4.28,4.28,0,0,0,4,2.77A4,4,0,0,0,97,72l4.63-2.07a4.63,4.63,0,0,0,2.31-6"/><path id="Fill-14" class="cls-3" d="M96.78,50.53,93.64,52a4.65,4.65,0,0,0-2.31,5.95,4.28,4.28,0,0,0,4,2.78A4,4,0,0,0,97,60.39l3.14-1.47a4.66,4.66,0,0,0,2.31-6,4.28,4.28,0,0,0-4-2.78,4.05,4.05,0,0,0-1.62.34"/><path id="Fill-16" class="cls-4" d="M105.72,91.86a5,5,0,0,0-4.57,3V91.77A5.19,5.19,0,0,0,91,90.32c0-3.9-1.78-6.46-5.18-6.46a5.23,5.23,0,0,0-5.13,4.45V66.51a5.2,5.2,0,1,0-10.39,0v33.8c-3.2-6.23-6.87-8.81-10.12-8.81H60c-3.08,0-5.49,2-6,3.08-.91,2,6.48,5.4,11.71,18.64,5.67,14.3,10.27,21.5,24.14,21.5,15.19,0,20.86-10.89,20.86-17.9V97a5.12,5.12,0,0,0-5.06-5.18"/></g><path id="Oval-7-Copy-2" class="cls-5" d="M75,126.19a60,60,0,1,0-60-60A60,60,0,0,0,75,126.19Z"/><g id="Group-18-Copy"><g id="Group-17-Copy"><g id="Oval-4"><ellipse id="step-2-path-3" cx="75" cy="126" rx="18" ry="17.81"/><ellipse id="step-2-path-3-2" data-name="step-2-path-3" class="cls-6" cx="75" cy="126" rx="18" ry="17.81"/></g></g></g></g></g><g id="Group-17-Copy-2"><circle id="Oval-4-2" data-name="Oval-4" class="cls-6" cx="76" cy="47.19" r="12"/><path id="_" data-name="$" class="cls-1" d="M77.26,49.68a1.27,1.27,0,0,0-.36-.93,3.13,3.13,0,0,0-1.2-.67,9.37,9.37,0,0,1-1.3-.55,2.65,2.65,0,0,1-1.56-2.46,2.53,2.53,0,0,1,.68-1.82,2.86,2.86,0,0,1,1.82-.85V41h1.07v1.46a2.62,2.62,0,0,1,1.79,1,3.31,3.31,0,0,1,.64,2.12H77.22a2.09,2.09,0,0,0-.37-1.32,1.23,1.23,0,0,0-1-.49,1.4,1.4,0,0,0-1,.35,1.31,1.31,0,0,0-.36,1,1.23,1.23,0,0,0,.36.93,3.39,3.39,0,0,0,1.21.67,8.66,8.66,0,0,1,1.34.58,3.48,3.48,0,0,1,.82.6,2.55,2.55,0,0,1,.51.79,2.82,2.82,0,0,1,.18,1.05,2.51,2.51,0,0,1-.69,1.83,3,3,0,0,1-1.92.82v1.3H75.21V52.33a3,3,0,0,1-2-.95,3.09,3.09,0,0,1-.71-2.12h1.62a1.85,1.85,0,0,0,.42,1.3,1.56,1.56,0,0,0,1.2.46,1.68,1.68,0,0,0,1.16-.36,1.29,1.29,0,0,0,.39-1Z"/></g><g id="lock"><rect id="Rectangle-path" class="cls-7" x="69" y="124.1" width="13" height="7.94" rx="2"/><path id="Shape" class="cls-7" d="M71.89,124.1v-2.89a3.61,3.61,0,0,1,7.22,0h0v2.89"/></g></svg>