<svg width="99" height="61" viewBox="0 0 99 61" xmlns="http://www.w3.org/2000/svg"><g id="Page-1" fill="none" fill-rule="evenodd"><g id="AAA" fill="#FFF"><path d="M98.49 3.196c-2.894-4.93-18.117-1.714-37.092 6.97.965.75 1.93 1.607 2.68 2.465 14.58-6.217 25.836-8.147 28.194-4.073 2.68 4.61-7.933 16.08-24.978 27.443l.214.215C88.306 22.707 101.706 8.77 98.49 3.195" id="Fill-2"/><path d="M8.654 56.798c-1.608-2.894 1.823-8.362 8.684-14.9-.537-.108-1.073-.323-1.61-.537-.106 0-.106-.106-.106-.106-.536-.215-1.072-.43-1.608-.643C5.76 48.223 1.58 54.655 3.508 58.085c2.36 3.967 12.543 2.68 26.158-2.358l-.107-.214c-10.936 3.752-18.976 4.502-20.906 1.286" id="Fill-3"/><path d="M.078 23.458C.078 11.773 15.515 2.23 34.49 2.23c19.082 0 34.52 9.543 34.52 21.228 0 11.793-15.438 21.333-34.52 21.333C15.515 44.79.078 35.25.078 23.46zm19.51-16.51l6.54 22.192 6.86-25.086c-4.823.215-9.432 1.18-13.4 2.895zm13.08 9.22L29.13 29.14h7.183l-3.645-12.972zM42.852 29.14L49.07 6.735c-4.074-1.61-8.684-2.574-13.508-2.68l7.29 25.085zm-23.37 0l-3.54-12.972-3.536 12.972h7.076zm40.843 2.572c1.716-2.465 2.68-5.252 2.68-8.254 0-5.682-3.537-10.72-9.326-14.365l6.645 22.62zm-7.29-2.572l-3.643-12.972-3.538 12.972h7.182zm.75 2.572h-8.682l-.75 2.788 2.036 6.646c3.323-.964 6.325-2.465 8.79-4.287l-1.394-5.148zm-30.98 9.434l-2.573-9.434h-8.577l-.75 2.68c3.002 3.003 7.076 5.36 11.9 6.862v-.108zm14.258-9.434H28.38L25.59 42.004c2.787.643 5.79.965 8.898.965 1.93 0 3.752-.108 5.575-.43l-3.002-10.828zm-22.3-22.19c-5.358 3.537-8.682 8.47-8.682 13.936 0 3.002.966 5.682 2.574 8.147l6.11-22.083z" id="Fill-4"/></g></g></svg>
