<svg width="1440" height="540" viewBox="0 0 1440 540" xmlns="http://www.w3.org/2000/svg" xmlns:xlink="http://www.w3.org/1999/xlink"><title>Group</title><defs><radialGradient cx="94.998%" cy="17.1%" fx="94.998%" fy="17.1%" r="180.427%" gradientTransform="scale(.375 1) rotate(153.224 1.742 .36)" id="radialGradient-1"><stop stop-color="#00588E" offset="0%"/><stop stop-color="#002B49" offset="100%"/></radialGradient><path id="path-2" d="M0 0h1440v540H0z"/></defs><g id="Page-1" fill="none" fill-rule="evenodd"><g id="ESCROW-INTEGRATIONS-V2"><g id="Group"><mask id="mask-3" fill="#fff"><use xlink:href="#path-2"/></mask><use id="Mask" fill="url(#radialGradient-1)" xlink:href="#path-2"/><g opacity=".2" mask="url(#mask-3)" fill="#002D4D"><path d="M1187.333 349.667c-28.54-10.388-42.58-43.804-32.207-72.306 10.377-28.51 42.612-45.083 71.152-34.695l138.44 50.388 14.606-40.128-139.542-50.79c-51.563-18.767-108.693 8.147-127.44 59.654-18.744 51.497 7.72 108.836 59.283 127.604l139.543 50.79 14.605-40.13-138.44-50.387z" id="Fill-1"/><path id="Fill-3" d="M1249.315 180.423l292.59 106.494 20.874-57.348-292.592-106.495z"/><path id="Fill-17" d="M1196.493 325.548l292.59 106.494 20.874-57.348-292.59-106.494z"/><path id="Fill-18" d="M1143.672 470.673l292.59 106.494 20.874-57.348-292.59-106.495z"/><path d="M1089.727-21.775c-188.586 497.093 67.06 719.456 111.4 753.36 55.73 2.544 394.52-3.428 569.598-505.497l-16.473-59.966c-33.43-23.07-163.424-110.12-289.977-159.31-127.722-43.36-282.985-60.148-323.38-63.933l-51.168 35.345zm91.412 808.278l-6.255-3.19c-3.64-2.47-360.355-252.554-135.416-833.963l3.178-8.214 82.587-57.045 10.122.762c7.812.62 348.506 68.143 348.506 68.143s305.544 167.688 311.922 172.234l8.248 5.923 26.596 96.785-2.85 8.334c-104.624 306.484-271.54 440.258-393.128 498.51-133.613 64.016-245.086 54.787-253.513 51.72z" id="Fill-19"/></g></g></g></g></svg>
