<svg width="375" height="540" viewBox="0 0 375 540" xmlns="http://www.w3.org/2000/svg" xmlns:xlink="http://www.w3.org/1999/xlink"><defs><radialGradient cx="94.998%" cy="17.1%" fx="94.998%" fy="17.1%" r="234.668%" gradientTransform="scale(-1 -.69444) rotate(-62.703 -.342 1.522)" id="b"><stop stop-color="#00588E" offset="0%"/><stop stop-color="#002B49" offset="100%"/></radialGradient><path id="a" d="M0 0h375v540H0z"/></defs><g fill="none" fill-rule="evenodd"><mask id="c" fill="#fff"><use xlink:href="#a"/></mask><use fill="url(#b)" xlink:href="#a"/><g opacity=".1" mask="url(#c)" fill="#002D4D"><path d="M188.34 376.009c-14.27-5.194-21.29-21.902-16.103-36.153 5.188-14.256 21.305-22.542 35.576-17.349l69.22 25.195 7.303-20.064-69.771-25.395c-25.782-9.384-54.347 4.073-63.72 29.827-9.372 25.749 3.86 54.418 29.641 63.802l69.771 25.395 7.303-20.064-69.22-25.194zM219.331 291.386l146.295 53.248 10.437-28.674-146.296-53.247z"/><path d="M192.92 363.949l146.296 53.247 10.436-28.674-146.295-53.247zM166.51 436.512l146.295 53.247 10.437-28.674-146.296-53.247z"/><path d="M139.537 190.288c-94.293 248.546 33.53 359.728 55.7 376.679 27.866 1.272 197.26-1.714 284.8-252.748l-8.237-29.983c-16.716-11.535-81.712-55.06-144.989-79.654-63.86-21.68-141.492-30.075-161.69-31.967l-25.584 17.673zm45.706 404.138l-3.127-1.594c-1.82-1.236-180.178-126.277-67.708-416.982l1.59-4.107 41.293-28.522 5.061.38c3.906.31 174.253 34.072 174.253 34.072s152.772 83.844 155.961 86.116l4.124 2.963 13.298 48.392-1.424 4.167C456.252 472.553 372.794 539.441 312 568.566c-66.807 32.008-122.544 27.394-126.757 25.86z"/></g></g></svg>
