<svg width="2560" height="650" xmlns="http://www.w3.org/2000/svg" xmlns:xlink="http://www.w3.org/1999/xlink"><defs><path id="a" d="M0 0h2560v650H0z"/><radialGradient fx="50%" fy="50%" r="149.592%" gradientTransform="matrix(.2539 0 0 1 .373 0)" id="b"><stop stop-color="#005D98" offset="0%"/><stop stop-color="#01426A" offset="100%"/></radialGradient><path id="d" d="M0 0h2566v650H0z"/><linearGradient x1="50%" y1="23.623%" x2="50%" y2="100%" id="e"><stop stop-color="#0065A3" stop-opacity="0" offset="0%"/><stop stop-color="#009BFA" offset="100%"/></linearGradient></defs><g fill="none" fill-rule="evenodd"><mask id="c" fill="#fff"><use xlink:href="#a"/></mask><path fill="url(#b)" fill-rule="nonzero" mask="url(#c)" d="M0 0h2560v650H0z"/><g><mask id="f" fill="#fff"><use xlink:href="#d"/></mask><path d="M1073.147 233.943c21.928 66.718 51.992 121.249 88.405 165.39 28.83 34.953 60.518 62.058 93.418 82.426 10.455 6.473 29.545 16.315 29.545 16.315 9.167-4.427 19.088-9.831 29.539-16.296 32.895-20.353 64.583-47.445 93.412-82.385 36.412-44.129 66.477-98.651 88.407-165.37 24.047-73.157 37.62-158.992 38.867-258.7.016-1.232.04-3.7.04-3.7-.87-.198-1.742-.394-2.616-.591a2347.071 2347.071 0 0 0-72.008-15.048c-69.365-13.34-131.13-21.726-176.828-23.005-44.869 1.28-106.02 9.658-174.868 22.983a2345.67 2345.67 0 0 0-71.586 15.044l-2.63.598c0 1.041.043 3.708.043 3.708s14.82 185.485 38.86 258.632v-.001zM920.454-56.269l43.513-72.392c21.508-5.442 199.679-49.51 319.336-52.23 121.471 2.72 300.211 46.788 321.754 52.192l43.513 72.465c6.326 529.198-296.16 654.328-356.913 674.022l-7.144 2.321-7.182-2.32c-60.751-19.731-363.203-144.968-356.874-674.06l-.003.002z" fill="url(#e)" fill-rule="nonzero" opacity=".13" mask="url(#f)"/></g></g></svg>
