<svg width="2560" height="650" viewBox="0 0 2560 650" xmlns="http://www.w3.org/2000/svg" xmlns:xlink="http://www.w3.org/1999/xlink"><title>banner</title><defs><path id="a" d="M0 0h2725v650H0z"/><radialGradient cx="56.535%" cy="47.123%" fx="56.535%" fy="47.123%" r="77.904%" gradientTransform="matrix(.2822 .20443 -.05893 .97888 .434 -.106)" id="b"><stop stop-color="#005D98" offset="0%"/><stop stop-color="#01426A" offset="100%"/></radialGradient><linearGradient x1="30.55%" y1="37.238%" x2="69.941%" y2="102.324%" id="d"><stop stop-color="#0065A3" stop-opacity="0" offset="0%"/><stop stop-color="#009BFA" offset="100%"/></linearGradient></defs><g fill="none" fill-rule="evenodd"><mask id="c" fill="#fff"><use xlink:href="#a"/></mask><use fill="#01426A" xlink:href="#a"/><path fill="url(#b)" mask="url(#c)" d="M0 0h2560v738H0z"/><path d="M1511.115 230.69c16.952 51.577 40.193 93.732 68.342 127.856 22.288 27.02 46.784 47.974 72.218 63.72 8.082 5.004 22.84 12.612 22.84 12.612 7.086-3.422 14.756-7.6 22.835-12.598 25.43-15.734 49.926-36.677 72.213-63.688 28.148-34.114 51.39-76.263 68.343-127.84 18.59-56.555 29.082-122.91 30.047-199.99.012-.952.03-2.86.03-2.86-.672-.153-1.346-.305-2.022-.457-17.925-4.036-36.66-7.978-55.666-11.633C1756.672 5.5 1708.924-.983 1673.597-1.972c-34.686.99-81.96 7.466-135.183 17.767-18.884 3.655-37.52 7.598-55.34 11.63l-2.033.462c0 .805.033 2.867.033 2.867s11.457 143.39 30.042 199.937zM1393.075 6.34l33.638-55.963C1443.34-53.83 1581.076-87.897 1673.578-90c93.904 2.103 232.08 36.17 248.734 40.347l33.638 56.02c4.89 409.1-228.948 505.832-275.914 521.057l-5.523 1.794-5.552-1.794c-46.964-15.253-280.776-112.068-275.884-521.086z" fill="url(#d)" fill-rule="nonzero" opacity=".13" mask="url(#c)"/></g></svg>
