<svg width="375" height="298" viewBox="0 0 375 298" xmlns="http://www.w3.org/2000/svg" xmlns:xlink="http://www.w3.org/1999/xlink"><defs><radialGradient cx="94.998%" cy="17.1%" fx="94.998%" fy="17.1%" r="198.275%" gradientTransform="matrix(-.54279 .73038 -.58041 -.68304 1.565 -.406)" id="b"><stop stop-color="#00588E" offset="0%"/><stop stop-color="#002B49" offset="100%"/></radialGradient><path id="a" d="M0 0h375v298H0z"/></defs><g fill="none" fill-rule="evenodd"><mask id="c" fill="#fff"><use xlink:href="#a"/></mask><use fill="url(#b)" xlink:href="#a"/><g opacity=".1" mask="url(#c)" fill="#002D4D"><path d="M239.269 317.546c-12.897-4.694-19.244-19.788-14.559-32.66 4.687-12.877 19.25-20.36 32.148-15.666l62.56 22.77 6.596-18.123-63.058-22.951c-23.3-8.48-49.113 3.67-57.58 26.933-8.465 23.258 3.498 49.159 26.799 57.64l63.057 22.95 6.596-18.123-62.56-22.77zM267.433 241.214l131.557 47.883 9.577-26.311-131.557-47.883z"/><path d="M243.433 307.214l131.557 47.883 9.577-26.311-131.557-47.883z"/><path d="M195.72 150.296c-85.068 224.223 30.37 324.57 50.392 339.87 25.158 1.155 178.1-1.494 257.07-227.963l-7.445-27.054c-15.095-10.412-73.79-49.7-130.928-71.906-57.664-19.578-127.758-27.172-145.994-28.885l-23.095 15.938zm41.375 364.642l-2.824-1.44c-1.643-1.115-162.711-113.98-61.243-376.234l1.434-3.705 37.275-25.724 4.57.345c3.527.28 157.338 30.787 157.338 30.787s137.956 75.688 140.836 77.74l3.724 2.673 12.02 43.666-1.285 3.759c-47.19 138.247-122.525 198.573-177.407 224.834-60.31 28.862-110.634 24.684-114.438 23.3z"/></g></g></svg>
