<svg width="41" height="113" xmlns="http://www.w3.org/2000/svg"><g fill="none" fill-rule="evenodd"><g transform="translate(0 .675)"><rect fill="#999" fill-rule="nonzero" width="40.167" height="26.452" rx="2"/><path fill="#FFF" d="M0 6.613h40.167v5.29H0zM2.645 14.548h13.226v1.984H2.645zM29.097 14.548h7.935v1.984h-7.935zM2.645 18.516h6.613V20.5H2.645z"/></g><g transform="translate(0 29)" fill-rule="nonzero"><rect fill="#0072CE" width="41" height="27" rx="2"/><path d="M35.14 16.437h-1.555c-.156 0-.259.006-.345.065-.09.058-.125.144-.125.259 0 .135.076.228.186.268.09.031.187.04.33.04l.461.013c.467.012.778.093.968.29.035.027.055.059.08.089v-1.024zm0 2.374c-.208.306-.612.46-1.158.46h-1.647V18.5h1.64c.163 0 .277-.02.345-.089a.316.316 0 0 0 .101-.235.297.297 0 0 0-.104-.237c-.062-.056-.152-.081-.3-.081-.801-.028-1.8.025-1.8-1.114 0-.523.328-1.072 1.223-1.072h1.7v-.717h-1.58c-.476 0-.822.114-1.067.294v-.294h-2.335c-.373 0-.811.093-1.019.294v-.294h-4.17v.294c-.331-.241-.891-.294-1.15-.294h-2.75v.294c-.262-.256-.846-.294-1.202-.294H16.79l-.704.77-.66-.77h-4.598v5.025h4.512l.725-.781.684.78 2.781.004v-1.183h.273c.37.006.804-.01 1.188-.176v1.356h2.294v-1.31h.11c.142 0 .156.006.156.148v1.162h6.967c.443 0 .905-.114 1.161-.322v.322h2.21c.46 0 .91-.065 1.251-.232v-.936zm-3.403-1.44c.166.175.255.394.255.764 0 .775-.48 1.137-1.34 1.137h-1.661v-.773h1.654c.162 0 .277-.02.349-.089a.32.32 0 0 0 .1-.235.31.31 0 0 0-.104-.237c-.065-.056-.155-.081-.303-.081-.798-.028-1.797.025-1.797-1.114 0-.523.325-1.072 1.22-1.072h1.71v.766h-1.565c-.155 0-.256.006-.342.065-.093.058-.128.144-.128.259 0 .136.08.228.187.268.09.032.186.04.332.04l.459.013c.463.012.78.093.974.29zm-7.697-.222c-.114.07-.255.075-.42.075h-1.037v-.81h1.05c.152 0 .304.005.407.066.11.059.177.17.177.324a.389.389 0 0 1-.177.346zm.515.449c.19.07.345.198.418.303.12.175.138.34.142.657v.714h-.857v-.45c0-.217.02-.538-.138-.706-.124-.129-.314-.16-.625-.16h-.912v1.316h-.857V15.67h1.97c.431 0 .746.019 1.025.17.27.164.439.388.439.8 0 .574-.38.868-.605.957zm1.078-1.927h2.847v.745h-1.998v.653h1.949v.736h-1.949v.717l1.998.003v.747h-2.847V15.67zm-5.755 1.661h-1.102v-.916h1.112c.308 0 .522.126.522.44 0 .312-.204.476-.532.476zm-1.952 1.613l-1.31-1.468 1.31-1.42v2.888zm-3.382-.423h-2.097v-.717h1.873v-.736h-1.873v-.653h2.139l.933 1.049-.975 1.057zm6.781-1.665c0 1-.74 1.207-1.485 1.207h-1.064v1.208h-1.658l-1.05-1.193-1.092 1.193h-3.378V15.67h3.43l1.05 1.18 1.085-1.18h2.725c.677 0 1.437.188 1.437 1.186zM7.528 11.52l-.584-1.436-.58 1.436h1.164zm12.862-.572c-.117.071-.256.074-.422.074h-1.036v-.8h1.05c.149 0 .304.008.405.066.11.052.179.164.179.318 0 .157-.065.284-.176.342zm7.392.572l-.59-1.436-.587 1.436h1.177zm-13.78 1.554h-.874l-.004-2.82-1.236 2.82h-.75L9.899 10.25v2.823H8.165l-.328-.804H6.06l-.33.804h-.927l1.527-3.6h1.267l1.451 3.41v-3.41h1.392l1.116 2.443 1.026-2.443h1.42v3.6zm3.485 0h-2.85V9.473h2.85v.75h-1.996v.649h1.948v.738h-1.948v.719h1.996v.745zm4.018-2.632c0 .574-.38.87-.601.96.186.072.346.198.421.304.12.179.142.338.142.66v.708h-.86l-.004-.455c0-.216.02-.528-.135-.701-.124-.127-.314-.154-.621-.154h-.916v1.31h-.853V9.473h1.962c.436 0 .757.012 1.033.172.27.162.432.396.432.797zm1.365 2.632H22V9.473h.87v3.6zm10.096 0h-1.208l-1.618-2.702v2.702h-1.737l-.332-.804H26.3l-.322.804h-.998c-.415 0-.94-.093-1.237-.399-.3-.306-.456-.719-.456-1.374 0-.535.094-1.023.46-1.408.276-.288.708-.42 1.296-.42h.825v.771h-.808c-.311 0-.487.048-.656.214-.146.151-.246.438-.246.815 0 .386.076.664.235.846.131.142.37.186.594.186h.383l1.203-2.832h1.278l1.444 3.405V9.473h1.298l1.5 2.508V9.473h.873v3.6zm-28.173.707H6.25l.329-.8h.735l.328.8h2.868v-.612l.256.614h1.488l.256-.623v.621h7.126l-.003-1.313h.138c.096.004.124.013.124.174v1.14h3.686v-.306c.297.16.76.305 1.368.305h1.55l.333-.8h.735l.325.8h2.988v-.76l.452.76h2.395V8.76h-2.37v.592l-.332-.593h-2.431v.593l-.305-.593h-3.284c-.55 0-1.034.077-1.424.294V8.76h-2.266v.294c-.249-.223-.587-.294-.964-.294h-8.28l-.556 1.297-.57-1.297H8.336v.593L8.05 8.76H5.826l-1.033 2.388v2.634z" fill="#FFF"/></g><g transform="translate(0 57.337)" fill-rule="nonzero"><rect fill="#000" width="41" height="27" rx="2"/><path d="M11.417 24.163v-1.504a.88.88 0 0 0-.241-.69.858.858 0 0 0-.675-.263.972.972 0 0 0-.842.425.863.863 0 0 0-.793-.425.838.838 0 0 0-.718.35v-.3h-.47v2.407h.47v-1.379a.567.567 0 0 1 .151-.456.552.552 0 0 1 .444-.171c.346 0 .545.225.545.627v1.379h.47v-1.379a.565.565 0 0 1 .15-.456.55.55 0 0 1 .444-.171c.347 0 .545.225.545.627v1.379h.52zm7.727-2.382h-.866v-.726h-.471v.726h-.495v.426h.495v1.128c0 .551.198.877.793.877.225-.004.446-.065.643-.175l-.148-.426a.809.809 0 0 1-.446.126.345.345 0 0 1-.282-.11.354.354 0 0 1-.09-.292v-1.153h.867v-.4zm4.409-.075a.74.74 0 0 0-.644.35v-.3h-.47v2.407h.47v-1.354c0-.401.198-.652.52-.652.109.005.217.021.322.05l.148-.451a1.651 1.651 0 0 0-.346-.05zm-6.662.25a1.684 1.684 0 0 0-.966-.25c-.595 0-.966.276-.966.752 0 .401.272.627.792.702l.248.025c.273.05.446.15.446.275 0 .176-.198.302-.57.302a1.293 1.293 0 0 1-.792-.251l-.248.375c.301.203.655.307 1.016.302.693 0 1.065-.326 1.065-.777 0-.452-.298-.628-.818-.703l-.247-.024c-.223-.025-.421-.101-.421-.25 0-.152.198-.302.47-.302.26.012.513.08.743.2l.248-.376zm7.207 1.003c-.02.339.103.67.34.91.237.239.564.364.898.343.305.016.605-.08.842-.275l-.248-.377a.984.984 0 0 1-.619.226.8.8 0 0 1-.732-.802.8.8 0 0 1 .732-.802.983.983 0 0 1 .62.226l.247-.376a1.228 1.228 0 0 0-.842-.276c-.33-.04-.66.072-.9.305a1.13 1.13 0 0 0-.338.898zm-3.344-1.253c-.693 0-1.164.501-1.164 1.253-.021.335.099.662.33.901.232.24.553.367.884.352.35.008.69-.107.966-.326l-.248-.35c-.2.156-.442.244-.694.25a.699.699 0 0 1-.718-.626h1.759v-.2c0-.753-.446-1.254-1.115-1.254zm0 .45a.589.589 0 0 1 .438.167.604.604 0 0 1 .182.436h-1.289a.64.64 0 0 1 .67-.602h-.001zm-6.414.803v-1.203h-.47v.3a.906.906 0 0 0-.769-.35c-.684 0-1.238.561-1.238 1.253 0 .692.554 1.253 1.238 1.253a.907.907 0 0 0 .768-.35v.3h.47V22.96h.001zm-1.932 0a.746.746 0 0 1 .774-.701.748.748 0 0 1 .71.766.747.747 0 0 1-.741.737.724.724 0 0 1-.549-.233.742.742 0 0 1-.194-.569zm18.302-1.253a.74.74 0 0 0-.644.35v-.3h-.47v2.407h.47v-1.354c0-.401.198-.652.52-.652.11.005.217.021.322.05l.149-.451a1.651 1.651 0 0 0-.347-.05zm-1.832 1.253v-1.203h-.471v.3a.906.906 0 0 0-.768-.35c-.684 0-1.238.561-1.238 1.253 0 .692.554 1.253 1.238 1.253a.907.907 0 0 0 .768-.35v.3h.47V22.96h.001zm-1.907 0a.746.746 0 0 1 .774-.701.748.748 0 0 1 .71.766.747.747 0 0 1-.741.737c-.471.025-.743-.35-.743-.802zm6.711 0v-2.155h-.47v1.253a.906.906 0 0 0-.768-.35c-.684 0-1.238.56-1.238 1.252s.554 1.253 1.238 1.253a.907.907 0 0 0 .767-.35v.3h.47V22.96h.001zm-1.932 0a.746.746 0 0 1 .774-.701.748.748 0 0 1 .71.766.747.747 0 0 1-.741.737.724.724 0 0 1-.549-.233.742.742 0 0 1-.194-.569z" fill="#FFF"/><path fill="#FF5F00" d="M16.544 3.534h8.594v14.187h-8.594z"/><path d="M17.435 10.628a9.09 9.09 0 0 1 3.393-7.094 8.83 8.83 0 0 0-10.57-.336C7.04 5.44 5.642 9.542 6.805 13.315c1.163 3.774 4.618 6.342 8.524 6.336a8.794 8.794 0 0 0 5.498-1.93 9.09 9.09 0 0 1-3.393-7.094z" fill="#EB001B"/><path d="M35.267 10.628c-.004 3.45-1.951 6.596-5.017 8.104a8.83 8.83 0 0 1-9.397-1.011 9.084 9.084 0 0 0 3.393-7.093 9.084 9.084 0 0 0-3.393-7.094 8.83 8.83 0 0 1 9.397-1.011c3.066 1.509 5.013 4.654 5.017 8.105z" fill="#F79E1B"/></g><g transform="translate(0 85.675)" fill-rule="nonzero"><rect fill="#26337A" width="41" height="27" rx="2"/><path d="M16.256 17.61l1.352-8.493h2.163L18.42 17.61h-2.164zm10.006-8.285a5.295 5.295 0 0 0-1.937-.356c-2.138 0-3.643 1.154-3.656 2.803-.014 1.22 1.073 1.903 1.893 2.308.843.415 1.126.682 1.122 1.052-.005.57-.672.83-1.294.83-.865 0-1.325-.127-2.036-.445l-.278-.135-.303 1.9c.505.237 1.44.442 2.41.453 2.272 0 3.748-1.138 3.766-2.901.007-.968-.57-1.7-1.818-2.308-.755-.395-1.22-.655-1.214-1.052 0-.355.392-.732 1.24-.732.556-.012 1.108.1 1.617.326l.195.097.292-1.842.001.002zm2.88 5.274c.18-.488.86-2.374.86-2.374-.01.02.18-.493.29-.81l.145.73s.415 2.029.5 2.453h-1.795zm2.668-5.473h-1.67c-.52 0-.908.15-1.135.703l-3.21 7.785h2.27s.37-1.048.455-1.278l2.77.005c.064.296.263 1.273.263 1.273h2.007l-1.75-8.488zm-17.37-.002l-2.115 5.79-.227-1.176c-.394-1.357-1.622-2.827-2.996-3.563l1.937 7.429 2.287-.002 3.406-8.478H14.44z" fill="#FFF"/><path d="M10.36 9.119H6.872l-.028.175c2.713.703 4.51 2.402 5.254 4.443l-.758-3.903c-.13-.536-.51-.698-.98-.716" fill="#ED982D"/></g></g></svg>
