<svg width="1440" height="275" viewBox="0 0 1440 275" xmlns="http://www.w3.org/2000/svg" xmlns:xlink="http://www.w3.org/1999/xlink"><defs><path id="path-1" d="M0 0h1440v275H0z"/></defs><g id="Page-1" fill="none" fill-rule="evenodd"><g id="ESCROW-INTEGRATIONS-V2"><g id="Group-16"><g id="Group-27"><g id="Group"><mask id="mask-2" fill="#fff"><use xlink:href="#path-1"/></mask><use id="Mask" fill="#7692AD" xlink:href="#path-1"/><g opacity=".08" mask="url(#mask-2)" fill="#002D4D"><path d="M1232.68 209.017c-28.54-10.388-42.58-43.803-32.207-72.306 10.378-28.51 42.612-45.083 71.152-34.695l138.44 50.388 14.606-40.128-139.54-50.79c-51.564-18.766-108.694 8.147-127.44 59.654-18.745 51.497 7.72 108.837 59.283 127.604l139.542 50.79 14.605-40.13-138.44-50.387z" id="Fill-1"/><path id="Fill-3" d="M1294.662 39.773l292.59 106.494 20.874-57.348-292.59-106.495z"/><path id="Fill-17" d="M1241.84 184.898l292.592 106.494 20.873-57.347-292.59-106.495z"/><path id="Fill-18" d="M1189.02 330.023l292.59 106.495 20.873-57.348-292.59-106.495z"/><path d="M1135.074-162.425c-188.586 497.093 67.06 719.456 111.4 753.36 55.73 2.544 394.52-3.428 569.598-505.497L1799.6 25.472c-33.43-23.07-163.424-110.12-289.977-159.308-127.723-43.36-282.985-60.15-323.38-63.935l-51.17 35.345zm91.413 808.278l-6.254-3.19c-3.64-2.47-360.356-252.554-135.416-833.962l3.18-8.213 82.585-57.046 10.122.763c7.812.62 348.507 68.143 348.507 68.143S1834.755-19.967 1841.133-15.42l8.248 5.923 26.597 96.786-2.85 8.332c-104.624 306.484-271.54 440.26-393.128 498.51-133.614 64.017-245.087 54.788-253.513 51.72z" id="Fill-19"/></g></g></g></g></g></g></svg>
