<svg width="1440" height="205" viewBox="0 0 1440 205" xmlns="http://www.w3.org/2000/svg" xmlns:xlink="http://www.w3.org/1999/xlink"><defs><radialGradient cx="94.998%" cy="17.1%" fx="94.998%" fy="17.1%" r="769.718%" gradientTransform="scale(-.14236 -1) rotate(-10.844 -4.663 40.156)" id="b"><stop stop-color="#00588E" offset="0%"/><stop stop-color="#002B49" offset="100%"/></radialGradient><path id="a" d="M0 0h1440v205H0z"/></defs><g fill="none" fill-rule="evenodd"><mask id="c" fill="#fff"><use xlink:href="#a"/></mask><use fill="url(#b)" xlink:href="#a"/><g opacity=".1" mask="url(#c)" fill="#002D4D"><path d="M1187.333 79.667c-28.54-10.388-42.581-43.804-32.207-72.306 10.377-28.511 42.612-45.084 71.152-34.696l138.44 50.388 14.606-40.128-139.542-50.79c-51.563-18.767-108.693 8.147-127.44 59.654-18.744 51.498 7.72 108.837 59.283 127.605l139.543 50.79 14.605-40.129-138.44-50.388zM1249.315-89.577l292.59 106.494 20.874-57.348-292.591-106.494z"/><path d="M1196.493 55.548l292.591 106.494 20.873-57.348L1217.367-1.8zM1143.672 200.673l292.591 106.494 20.873-57.348-292.59-106.494z"/><path d="M1089.727-291.775c-188.586 497.093 67.06 719.456 111.401 753.359 55.73 2.545 394.518-3.427 569.597-505.496l-16.473-59.966c-33.43-23.07-163.424-110.12-289.977-159.309-127.722-43.36-282.985-60.149-323.379-63.934l-51.17 35.346zm91.412 808.278l-6.254-3.19c-3.64-2.471-360.355-252.554-135.416-833.963l3.18-8.214 82.586-57.045 10.122.761c7.812.62 348.506 68.143 348.506 68.143s305.544 167.688 311.922 172.234l8.248 5.924 26.596 96.785-2.848 8.334c-104.625 306.484-271.54 440.258-393.129 498.509-133.613 64.017-245.086 54.788-253.513 51.722z"/></g></g></svg>
