<?xml version="1.0" encoding="UTF-8"?>
<svg width="40px" height="24px" viewBox="0 0 40 24" version="1.1" xmlns="http://www.w3.org/2000/svg" xmlns:xlink="http://www.w3.org/1999/xlink">
    <title>Icon/color/Card</title>
    <defs>
        <path d="M11.1111111,2.18181816 L2.2222222,2.18181816 C1.61111109,2.18181816 1.11111109,2.67272726 1.11111109,3.27272726 L1.11111109,9.81818183 C1.11111109,10.4181818 1.61111109,10.9090909 2.2222222,10.9090909 L11.1111111,10.9090909 C11.7222222,10.9090909 12.2222222,10.4181818 12.2222222,9.81818183 L12.2222222,3.27272726 C12.2222222,2.67272726 11.7222222,2.18181816 11.1111111,2.18181816 Z M11.1111111,9.81818183 L2.2222222,9.81818183 L2.2222222,6.54545455 L11.1111111,6.54545455 L11.1111111,9.81818183 Z M11.1111111,4.36363635 L2.2222222,4.36363635 L2.2222222,3.27272726 L11.1111111,3.27272726 L11.1111111,4.36363635 Z" id="path-1"></path>
    </defs>
    <g id="Page-1" stroke="none" stroke-width="1" fill="none" fill-rule="evenodd">
        <g id="ACH-2---1" transform="translate(-404.000000, -1251.000000)">
            <g id="Container-Copy" transform="translate(363.000000, 1115.000000)">
                <g id="Wire-Copy-3" transform="translate(1.000000, 125.000000)">
                    <g id="Skrill-dark" transform="translate(40.000000, 11.000000)">
                        <rect id="Rectangle" fill="#0088FF" x="0" y="0" width="40" height="24" rx="3"></rect>
                        <g id="Icons/content/ui-credit-card-v2" transform="translate(13.333333, 5.454545)">
                            <mask id="mask-2" fill="white">
                                <use xlink:href="#path-1"></use>
                            </mask>
                            <g id="ui/credit-card-v2" fill-rule="nonzero"></g>
                            <g id="Group" mask="url(#mask-2)" fill="#FFFFFF">
                                <g id="🎨-color">
                                    <rect id="Color" x="0" y="0" width="13.3333333" height="13.0909091"></rect>
                                </g>
                            </g>
                        </g>
                    </g>
                </g>
            </g>
        </g>
    </g>
</svg>

