<svg width="133" height="91" viewBox="0 0 133 91" xmlns="http://www.w3.org/2000/svg"><g fill="none" fill-rule="evenodd"><path d="M66.357 48.544c2.547.373 3.705 1.075 4.26 1.606 1.586 1.523.727 6.007-4.14 6.007-1.995 0-3.703-1.076-4.456-2.606h-7.82c.736 4.218 4.135 7.64 8.622 8.865L62.83 66h7.288l.003-3.582c2.309-.634 4.338-1.843 5.857-3.442 2.617-2.582 5.138-9.013.209-13.905-1.96-1.943-4.932-3.169-8.625-3.69-3.425-.509-4.653-1.476-5.286-2.072-1.376-1.29-.656-6.092 4.208-6.092 2.68 0 4.858 1.945 4.858 4.33l7.578.002c-.002-4.991-3.705-9.205-8.802-10.589V23H62.83l-.004 3.962C56.02 28.807 54 34.699 54 37.642c0 1.54.417 4.257 2.405 6.431 1.977 2.175 5.292 3.823 9.952 4.471" fill="#3CB95D"/><path d="M71 36h62v55H71z"/><path d="M73.323 84.92A12.492 12.492 0 0 1 71.117 91c.087-.004.167-.033.253-.036 9.788-.858 18.557-4.676 25.189-10.585l.92 10.378H133l-3.304-38.467c-.85-9.761-9.454-17.056-19.187-16.226-7.843 1.066-14.507 5.512-16.195 17.584C92.44 67.078 83.146 75.121 71 76.524a12.49 12.49 0 0 1 2.323 8.395M105.396 32.936c8.8-.796 15.312-8.798 14.542-17.878-.77-9.076-8.526-15.788-17.335-14.994-8.795.794-15.311 8.792-14.541 17.872.768 9.077 8.532 15.796 17.334 15" fill="#E0E8EE"/><path d="M35.745 86.689c-6.213-4.641-10.998-10.735-13.806-18.124l4.777-1.827c5.557 13.758 18.72 22.844 34.538 24.245 4.262.275 7.393-2.792 7.719-6.552.34-3.973-2.558-7.465-6.48-7.812-12.52-1.11-22.246-9.329-23.962-23.275-1.092-8.865-6.974-16.473-15.954-17.272-10.116-.9-18.143 6.727-18.938 15.95L0 90.72h35.385l.36-4.031zM30.396 32.936c8.801-.796 15.312-8.798 14.542-17.878C44.168 5.982 36.408-.73 27.604.064c-8.798.794-15.312 8.792-14.542 17.872.768 9.077 8.534 15.796 17.334 15" fill="#4F6983"/><g transform="translate(46 23)"><circle fill="#3CB95D" cx="21.5" cy="21.5" r="21.5"/><path d="M24.91 25.429c0-.661-.21-1.208-.63-1.64-.42-.43-1.12-.82-2.1-1.166-.979-.346-1.741-.667-2.285-.962-1.812-.972-2.718-2.41-2.718-4.316 0-1.29.393-2.352 1.178-3.184.785-.832 1.85-1.326 3.196-1.482v-2.543h1.866v2.567c1.353.194 2.4.768 3.138 1.72.739.953 1.108 2.191 1.108 3.715H24.84c0-.98-.22-1.751-.659-2.315-.439-.564-1.036-.846-1.79-.846-.747 0-1.33.202-1.75.607-.42.404-.63.983-.63 1.738 0 .676.208 1.219.624 1.627.416.408 1.122.795 2.117 1.16.996.366 1.777.704 2.345 1.015a5.996 5.996 0 0 1 1.435 1.068c.389.4.688.86.898 1.382.21.521.315 1.131.315 1.831 0 1.314-.403 2.38-1.207 3.196-.805.817-1.927 1.299-3.366 1.447v2.274h-1.854V30.06c-1.54-.17-2.724-.723-3.552-1.656-.828-.933-1.242-2.17-1.242-3.71h2.834c0 .98.247 1.739.74 2.275.495.537 1.192.805 2.095.805.886 0 1.56-.214 2.023-.641.463-.428.694-.996.694-1.703z" fill="#FFF"/></g></g></svg>
