<svg width="67" height="102" viewBox="0 0 67 102" xmlns="http://www.w3.org/2000/svg"><g fill="none" fill-rule="evenodd"><path d="M58.741 13.057c-.712.184-1.837.66-2.741 1.058V24l4.407-2.246c2.15-.967 3.162-3.62 2.267-5.931-.734-1.877-2.605-3.11-3.933-2.766M13.958 69c-.758-1.181-1.111-2.42-.49-3.858.462-1.07 1.744-2.377 3.532-3.365-1.728-1.412-2.834-3.656-2.834-6.151V12.23C11.96 7.956 7.784 7.42 6.124 8.45c-1.861 1.157 2.262 8.525-2.169 22.19C2.122 36.272.418 41.77.075 46.443-.797 58.279 6.048 66.273 13.958 69" fill="#E0E8EE"/><path d="M42 51v4.85a8.005 8.005 0 0 1 1.992-.25c.943 0 1.817.139 2.615.4A6.074 6.074 0 0 1 47 51h-5zM36.648 6.231h-2.433a1.146 1.146 0 0 1-1.138-1.15c0-.637.51-1.153 1.138-1.153h2.433c.626 0 1.137.516 1.137 1.152 0 .635-.51 1.151-1.137 1.151M49.944.751C44.733.252 40.129 0 35.51 0c-4.612 0-9.24.252-14.503.759C18.761 1.05 17 3.22 17 5.695v50.838c0 2.472 1.758 4.643 4.056 4.942 2.401.233 4.749.402 7.076.525V49.945h-7.503V9.565h29.649v17.182L54 25.033V5.695c0-2.477-1.762-4.644-4.056-4.944" fill="#455E79"/><path d="M56.39 48c-.468 0-.93.09-1.345.27L51.2 49.945c-1.827.783-2.682 2.934-1.922 4.81.62 1.524 2.011 2.246 3.332 2.246.47 0 .93-.09 1.345-.268l3.848-1.673c1.825-.784 2.68-2.938 1.921-4.812C59.104 48.72 57.715 48 56.391 48M60.698 38.495A3.876 3.876 0 0 0 57.06 36c-.512 0-1.013.099-1.463.297l-4.198 1.861c-1.99.868-2.926 3.264-2.097 5.35A3.875 3.875 0 0 0 52.938 46c.513 0 1.017-.1 1.467-.3l4.197-1.858c1.992-.87 2.924-3.263 2.096-5.347M54.925 27.285L52.25 28.54c-1.868.827-2.745 3.104-1.967 5.085C50.92 35.237 52.345 36 53.699 36a3.4 3.4 0 0 0 1.377-.283l2.67-1.254c1.872-.831 2.749-3.11 1.97-5.088C59.08 27.762 57.656 27 56.3 27a3.38 3.38 0 0 0-1.376.285" fill="#E0E8EE"/><path d="M62.456 63.53c-1.823 0-3.388 1.093-4.107 2.677v-2.76c0-2.632-2.094-4.77-4.67-4.77-2.134 0-3.934 1.466-4.489 3.47 0-3.506-1.606-5.803-4.66-5.803-2.323 0-4.238 1.73-4.6 3.994v-19.57c0-2.634-2.093-4.768-4.668-4.768-2.579 0-4.666 2.134-4.666 4.768v30.345c-2.879-5.587-6.17-7.91-9.09-7.91h-.083c-2.767.043-4.927 1.792-5.355 2.768-.812 1.834 5.823 4.848 10.524 16.728C31.683 95.54 35.812 102 48.266 102 61.913 102 67 92.232 67 85.934V68.176c0-2.57-2.033-4.646-4.544-4.646" fill="#455E79"/><path d="M32.888 14v1.752c-4.967 1.314-5.911 8.622 1.552 9.534 1.04.128 1.63.479 1.876.712.697.674.32 2.652-1.822 2.652-.879 0-1.632-.474-1.962-1.151h-3.439c.323 1.862 1.819 3.376 3.793 3.918L32.888 33h3.207v-1.583c4.457-.924 6.32-8.267-1.125-9.294-1.508-.207-2.047-.653-2.324-.915-.607-.574-.289-2.692 1.85-2.692 1.18 0 2.138.86 2.14 1.913h3.33c-.002-2.203-1.628-4.068-3.87-4.678V14h-3.208z" fill="#3CB95D"/><g transform="translate(26 13)"><circle fill="#3CB95D" cx="10.5" cy="10.5" r="10.5"/><path d="M11.737 12.582c0-.328-.094-.599-.28-.813-.188-.214-.5-.406-.936-.578a6.979 6.979 0 0 1-1.019-.477c-.807-.482-1.21-1.195-1.21-2.14 0-.64.174-1.166.524-1.579.35-.412.825-.657 1.424-.734V5h.832v1.272c.603.097 1.069.381 1.398.853.329.473.494 1.087.494 1.842h-1.258c0-.485-.098-.868-.294-1.148a.924.924 0 0 0-.798-.419c-.332 0-.592.1-.78.3-.186.201-.28.489-.28.863 0 .335.093.604.278.806.185.203.5.395.943.576a7.58 7.58 0 0 1 1.045.503c.253.154.466.33.64.53.173.198.306.426.4.684.093.259.14.561.14.908 0 .652-.18 1.18-.538 1.585-.359.405-.858.644-1.5.717V16h-.826v-1.122c-.686-.085-1.213-.359-1.582-.821-.37-.463-.554-1.076-.554-1.84h1.263c0 .486.11.862.33 1.128.22.266.531.4.933.4.395 0 .696-.107.902-.319.206-.212.309-.493.309-.844z" fill="#FFF"/></g></g></svg>
