<svg width="91" height="103" viewBox="0 0 91 103" xmlns="http://www.w3.org/2000/svg" xmlns:xlink="http://www.w3.org/1999/xlink"><defs><path id="a" d="M.442.005H16.47v17.596H.442z"/></defs><g fill="none" fill-rule="evenodd"><path d="M18 47.339h53.36C66.868 40.039 56.614 35 44.68 35 32.748 35 22.495 40.038 18 47.339M59.554 16.03C59.554 7.178 52.492 0 43.774 0 35.062 0 28 7.178 28 16.03s7.062 16.03 15.774 16.03c8.718 0 15.78-7.178 15.78-16.03" fill="#4F6983"/><path d="M10 92h68.284v11.356H10z"/><path fill="#E0E8EE" d="M10 51h68v52H10z"/><path d="M20.368 80.248c.17-4.836-3.481-9.328-8.204-9.247-.608.01-2.08.13-2.684.207-4.802.592-5.254 3.804-5.435 8.73-.174 4.855-.064 9.182 4.573 9.116.607-.009 2.039-.17 2.645-.208 4.746-.293 8.927-3.671 9.105-8.598" fill="#4F6983"/><g transform="translate(68 71)"><mask id="b" fill="#fff"><use xlink:href="#a"/></mask><path d="M11.1.208C10.509.152 9.072.015 8.476.006 3.854-.072.275 4.305.448 9.018c.173 4.8 4.264 8.09 8.912 8.38.59.035 1.995.193 2.59.202 4.536.065 4.645-4.154 4.477-8.886-.179-4.799-.563-8.08-5.327-8.506" fill="#4F6983" mask="url(#b)"/></g><ellipse cx="18" cy="17.807" rx="18" ry="17.807" transform="translate(27 60)" fill="#3CB95D"/><path d="M54 73L43 84l-5-5" stroke="#FFF" stroke-linecap="round" stroke-linejoin="round" stroke-width="3"/><path d="M4.332 72.23c1.575-2.7 4.632-3.585 8.168-3.113 2.733.365 5.545 1.548 6.593 2.89 2.9 3.71 4.145 8.479 1.37 13.184-3.436 5.826-11.787 7.782-15.871 3.367-3.536-3.822-3.306-11.106-.26-16.328zM86.648 85.676c-1.284 2.85-4.232 4.05-7.798 3.95-2.756-.077-5.676-.96-6.859-2.184-3.27-3.386-5.008-8-2.74-12.97 2.808-6.153 10.909-8.97 15.432-5.007 3.916 3.432 4.448 10.7 1.965 16.211z" stroke="#FFF" stroke-width="4" fill="#4F6983"/></g></svg>
